# xmcd CD database file
#
# Track frame offsets:
#	150
#	30607
#	52097
#	70054
#	92547
#	109132
#	132162
#	152567
#	174587
#	200802
#	223764
#	242984
#	258617
#	273442
#	297122
#
# Disc length: 4305 seconds
#
# Revision: 0
# Processed by: cddbd v1.5.1PL0 Copyright (c) Steve Scherf et al.
# Submitted via: CDex 1.51
#
DISCID=e510cf0f
DTITLE=葉加瀬太郎セレクション - ナチュラル?-2
DYEAR=2004
DGENRE=New Age
TTITLE0=Dolce Vita
TTITLE1=24時間の旅
TTITLE2=Natty Parede
TTITLE3=TRUTH 21c
TTITLE4=I could be free
TTITLE5=RIGHT ON THE ORBIT
TTITLE6=Havana
TTITLE7=Hello
TTITLE8=AZURE in Santa Fe
TTITLE9=BULLES DE SAVON
TTITLE10=あなたを思うと
TTITLE11=あなたの最高のしあわせを
TTITLE12=リベルタンゴ
TTITLE13=人と時と風の中へ
TTITLE14=Another Sky(live image 4 version)
EXTD=YEAR: 2004
EXTT0=
EXTT1=
EXTT2=
EXTT3=
EXTT4=
EXTT5=
EXTT6=
EXTT7=
EXTT8=
EXTT9=
EXTT10=
EXTT11=
EXTT12=
EXTT13=
EXTT14=
PLAYORDER=
